<?xml version="1.0" encoding="UTF-8"?>
<svg id="Layer_2" data-name="Layer 2" xmlns="http://www.w3.org/2000/svg" viewBox="0 0 380.47 427.81">
  <defs>
    <style>
      .cls-1, .cls-2 {
        stroke-width: 0px;
      }

      .cls-2 {
        <!-- fill: #f0ede5; -->
        fill: #ffffff;
      }
    </style>
  </defs>
  <g id="Layer_1-2" data-name="Layer 1">
    <g>
      <path class="cls-1" d="m251.27,416.12c-6.41,0-11.71-4.81-12.32-11.2l-.83-8.61c-.32-3.31.67-6.52,2.77-9.07,1.54-1.87,3.55-3.22,5.81-3.93.09-.12.18-.23.27-.34l8.75-10.63c.39-.47.8-.9,1.24-1.31.31-.52.67-1.01,1.06-1.49l.15-.18c-.39-3.22.48-6.6,2.69-9.31,1.66-2.02,3.32-4.04,4.98-6.05-6.87,3.27-13.51,3.77-16.9,3.77h0c-.99,0-1.7-.04-2.04-.07-9.82-.75-17.56-5.18-22.93-10.02l-10.27,34.78c-.18.59-.4,1.17-.66,1.73-2.65,5.57-9,12.06-18.18,12.06-1.66,0-3.35-.22-5.01-.65-.04-.01-.35-.09-.4-.1-.17-.04-1.2-.28-1.2-.28-.62-.14-1.32-.3-2.08-.49,0,0-1.89-.47-1.94-.48-.2-.05-.4-.1-.6-.16-.15-.04-.31-.08-.46-.13l-1.19-.33c-15.93-4.64-27.36-13.52-33.52-25.72l-15.77,12.8c-3.32,2.7-7.51,4.18-11.79,4.18-2.11,0-4.2-.35-6.19-1.05-13.72-4.78-25.38-12.87-33.71-23.37-4.56-5.75-11.45-14.43-11.65-27.32-.24-15.61,9.19-30.75,22.93-36.83,2.91-1.28,5.82-2.13,8.65-2.5,1.21-.16,2.45-.25,3.69-.25,4.3,0,8.62.97,12.94,2.9,3.22-10.19,11.6-17.69,23.11-20.75-10.45-.9-26.62-4.47-38.64-17.13-4.7,1-10.92,1.57-17.28,1.57-8.89,0-21.23-1.08-29.53-6.21-7-4.33-11.08-10.37-13.78-16.39-.67-.21-1.33-.49-1.97-.83-2.97-1.59-5.81-3.44-8.43-5.5-4.62-3.63-8.67-7.96-12.04-12.87-1.47-2.15-2.49-4.52-3.05-7.05-3.17-14.48-4.59-29.3-4.2-44.04.29-11.03,1.59-22.11,3.88-32.93.59-2.79,1.74-5.36,3.43-7.65,4.42-6.02,9.68-11.33,15.61-15.79,1.25-.94,2.57-1.86,3.92-2.76.87-.57,1.79-1.02,2.75-1.33,3.55-8.3,8.9-15.57,17.9-20.37,1.42-23.29,7.5-39.2,19.34-50.96,20.03-19.91,54-23.8,105.9-23.8,2.48,0,5.01,0,7.59.03,24.76.24,42.24,1.19,56.73,3.05,17.69,2.29,30.92,5.99,41.63,11.66,12.38,6.56,21.17,15.65,26.87,27.79,4.03,8.6,6.45,18.77,7.34,30.9,7.58,3.62,14.81,10.06,17.88,21.5,1.54.84,3.04,1.72,4.5,2.64,3.73,2.34,7.31,4.98,10.64,7.83,2.84,2.43,4.83,5.62,5.76,9.23.03.1.05.2.08.3,3.7,15.51,5.47,31.45,5.26,47.39-.2,14.73-2.1,29.45-5.65,43.75-1.12,4.52-3.76,8.58-7.43,11.43-2.84,2.2-5.8,4.26-8.79,6.12-1.66,1.03-3.36,2.02-5.08,2.96-4.52,7.71-9.2,12.94-14.6,16.47,1.6.69,3.11,1.51,4.52,2.46,4.09,2.74,7.22,6.47,9.22,10.94,6.44,5.26,9.6,13.08,8.71,21.81-.26,2.53-.8,4.97-1.62,7.31,2.59,3.9,4.06,8.33,4.26,13.05.01.19.02.38.03.57.12,5.41-1.34,10.53-4.18,14.93.18,3.61-.43,7.08-1.84,10.25-4.18,9.44-14.6,15.08-27.85,15.08h0c-1.57,0-3.17-.08-4.78-.23l-.48.59.32,1.55c.74,3.73-.22,7.5-2.62,10.38l-18.52,22.49c-2.15,2.63-5.29,4.24-8.68,4.48l-.14.17c-.38.47-.8.9-1.24,1.31-.31.51-.66,1.01-1.05,1.48l-8.76,10.64c-.1.12-.2.23-.3.35-.66,5.7-5.22,10.34-11.11,10.91l-8.61.83c-.38.04-.82.06-1.2.06Zm1.72-135.05c7.36,0,15.17,3.76,21.42,10.33,7.89,8.27,11.92,19.38,11.36,31.29-.2,4.13-.91,7.97-2.13,11.5,1.66-.8,3.49-1.23,5.38-1.23h1.25s3.18-3.9,3.18-3.9c-1.51-2.59-2.34-5.41-2.52-8.22-.13-2.11.1-4.21.66-6.21-2.71-2.79-4.48-6.31-5.08-10.41-.58-3.97.15-7.86,2.02-11.24-1.6-2.57-2.55-5.64-2.62-9.21-.02-.95.05-2.31.38-3.88-2.96-2.5-5.01-5.97-5.74-9.82l-1.99-9.86c-2.09-.48-3.99-1.05-5.73-1.71-2.41,2.34-5.01,4.48-7.76,6.39-9.26,6.42-18.87,9.31-27.03,10.47l5.58,6.46c2.6-.44,5.72-.75,9.36-.75Zm-110.53-64.15c2.7,2.02,4.44,4.38,5.5,6.18,2.53,4.32,3.86,9.72,4.19,17.17.51-2.61.59-5.06.59-6.44,0-3.97-.73-16.92-10.17-16.92-.04,0-.07,0-.11,0Zm45.05,0c2.7,2.02,4.44,4.38,5.5,6.18,2.53,4.32,3.86,9.71,4.19,17.17.51-2.61.59-5.06.59-6.44,0-3.97-.73-16.92-10.17-16.92-.04,0-.07,0-.11,0ZM113.66,87.36c5.38,3.36,9.41,7.86,11.84,13.29,3.22,7.19,5.48,17.18,6.91,30.8l24.2-36.94c2.57-3.93,6.92-6.28,11.62-6.28s9.32,2.49,11.87,6.66l13.92,22.82,19.41-24.79c2.65-3.39,6.64-5.33,10.94-5.33,5.23,0,9.96,2.89,12.36,7.53l13.38,26c3.95-17.63,10.94-28.83,21.57-34.91-.46-8.79-1.63-16.12-3.49-21.85-2.07-6.37-4.11-8-4.13-8.02-3.51-2.7-10.82-8.33-72.05-8.33h-1.6c-29.32,0-50.07,1.21-61.67,3.61-6.95,1.43-7.98,2.57-8.9,3.56l-.13.14c-.41.45-.84.91-1.3,1.37-.45.68-3.83,6.53-4.76,30.66Z"/>
      <path class="cls-2" d="m184.47,23.38c2.46,0,4.96,0,7.51.03,24.26.24,41.31,1.15,55.31,2.96,16.25,2.1,28.22,5.41,37.66,10.4,10.06,5.32,17.18,12.66,21.75,22.42,4.19,8.93,6.35,20.16,6.6,34.29,15.33,3.75,18.05,14.22,18.81,20.99,2.73,1.26,5.66,2.8,8.7,4.7,3.61,2.26,6.68,4.6,9.25,6.81,1.03.88,1.75,2.05,2.07,3.36h0c2.74,11.47,5.18,26.65,4.94,44.52-.22,16.29-2.62,30.24-5.31,41.09-.49,1.99-1.62,3.75-3.24,5-2.32,1.8-4.92,3.64-7.8,5.43-2.54,1.58-5.02,2.94-7.41,4.14-9.34,17.48-16.92,20.24-38.33,20.52-.39,0-.76,0-1.14,0-20.64,0-25.01-7.45-28.43-12.03-3.48-4.66-9.23-19.13-7.46-80.75,1.3-45.24,11.07-59.23,25.66-63.43-.09-13.47-1.52-24.6-4.28-33.08-2.65-8.18-5.88-11.95-8.12-13.67-5.58-4.29-13.98-10.75-79.18-10.75-.53,0-1.08,0-1.62,0-69.14,0-75.18,6.6-79.17,10.97-.38.41-.77.83-1.19,1.26-6.29,6.26-7.98,28.05-8.25,46.03,5.37,1.89,10.51,5.18,13.06,10.85,4.46,9.95,6.45,27.34,7.27,45.76-3.38,2.43-6.49,5.13-9.3,8.09-2.94,3.09-5.5,6.4-7.73,9.87.02-.85.05-1.7.06-2.56.18-10.16-.11-19.68-.71-28.46-1.62-.47-3.98-.97-6.87-.97-.36,0-.73,0-1.11.03-3.46.16-6.21,1.01-7.98,1.71-.81,9.37-1.28,19.7-1.14,30.84.13,10.42.77,20.1,1.71,28.94,1.41.35,3.17.67,5.21.8-1.92,14.48.12,28.94,4.99,40.33,1.01,2.37,2.13,4.56,3.34,6.55-.78.26-1.55.48-2.28.66-3.7.88-9.44,1.47-15.54,1.47-8.69,0-18.1-1.2-23.38-4.47-8.98-5.56-11.12-16.25-13.69-24.38-2.57-8.13-5.24-68.84-.54-91.08,3.7-17.53,8.02-29.47,23.49-34.18.42-24.23,5.46-39.92,16.18-50.58,16.87-16.76,47.56-20.4,97.65-20.4m105.17,69.23c3.35-.42,6.89-.53,10.59-.53.31,0,.61,0,.92,0,2.17.02,4.19.14,6.06.35-.21-8.08-1.07-15.11-2.66-21.24h-16.6c.95,5.94,1.58,13.01,1.68,21.42m-212.93.36c2.72-.44,5.72-.71,9.03-.81.32,0,.68-.02,1.07-.02,2.15,0,5.38.17,8.92.83h0s0,0,0,0c0,0,0,0,0,0,.15-8.33.56-15.57,1.25-21.78h-17.82c-1.43,6.23-2.23,13.43-2.44,21.78m245.35,136.86c.77,0,1.54-.06,2.3-.18.39-.07.72-.36.82-.77h0c.14-.57-.24-1.15-.82-1.25-2.47-.61-4.75-1.75-6.71-3.16-6.02-4.34-8.9-11.51-9.72-18.72-2.06-18.62-1.96-37.44-1.04-56.16.94-12.76,4.23-25.25,16.81-31.1,1.28-.59.84-2.51-.55-2.51-.02,0-.03,0-.05,0-7.76.33-14.31,5.47-18.07,12.08-5.08,8.85-6.09,19.25-6.3,29.24-.39,13.72-.62,27.56.81,41.25.88,8.69,2.35,17.9,8.48,24.6,3.53,3.92,8.73,6.66,14.03,6.66m7.28-92.62c.3,0,.59-.14.78-.39,1.02-1.37,2.39-2.98,4.2-4.55,1.41-1.22,2.79-2.17,4.01-2.91h0c.6-.36.65-1.2.09-1.62-1.53-1.14-3.55-2.39-6.05-3.4-2.34-.95-4.48-1.43-6.2-1.67-.04,0-.09,0-.13,0-.12,0-.23.02-.34.06-1.27.49-3.01,1.33-4.75,2.83-2.21,1.89-3.49,4.02-4.23,5.57-.26.54.02,1.19.6,1.36,1.52.45,3.12.97,4.79,1.61,2.5.95,4.76,1.98,6.77,3.02.14.07.3.11.45.11m-104.97-37.92c.78,0,1.56.41,1.96,1.2,7.74,15.04,15.48,30.08,23.23,45.11l.03.02,5.58.14.03.03c-.24,3.59-.42,7.37-.54,11.36-.78,27.14-.18,48.1,1.79,62.28,1.4,10.11,3.41,16.64,6.32,20.53.17.22.34.46.51.7,1.26,1.71,2.72,3.7,4.94,5.6v.04c-2.44,2.91-5.65,6.09-9.81,8.98-11.28,7.83-23.18,9.07-30.05,9.07-1.43,0-2.64-.05-3.58-.11h-11.74l-.02.05,26.57,30.73h.03c.33-.14,4.81-2.26,13.36-2.26s21.96,11.41,21.1,29.37c-.31,6.59-2.37,11.57-5.42,15.23-6.65,7.97-16.34,8.72-19.72,8.72-.62,0-1.02-.02-1.16-.04-12.13-.93-20-10.46-21.14-13.46h-.01c-7.69-19.86-17.02-46.9-17.89-48.15-.11-.16-.42-.6-.72-.6-.02,0-.04,0-.05,0-.37.07-.65.84-.57,1.09.27.88,9.01,30.5,9.35,31.77.45,1.67,2.17,6.85.9,11.12l-15.16,51.33s-2.48,5.41-7.64,5.41c-.64,0-1.33-.08-2.06-.27-.1-.03-.21-.05-.32-.08-.04-.01-.08-.02-.12-.03-.08-.02-.15-.04-.23-.06-.04,0-.09-.02-.14-.03-.09-.02-.17-.04-.26-.06-.03,0-.06-.01-.09-.02-.75-.18-1.67-.38-2.71-.63-.01,0-.02,0-.04,0-.18-.04-.36-.09-.54-.13,0,0-.01,0-.02,0-.18-.04-.37-.09-.56-.14-.01,0-.02,0-.04,0-.18-.05-.38-.1-.57-.15-.01,0-.03,0-.04,0-.19-.05-.39-.1-.59-.16-.01,0-.03,0-.04,0-.2-.06-.4-.11-.61-.17,0,0-.02,0-.03,0-.21-.06-.43-.12-.65-.18-11.03-3.21-28.69-11.25-30.21-34.83-.08-1.21-.12-2.46-.11-3.75.36-15.82,14.31-26.04,26.96-26.04,6.89,0,13.4,3.03,17.11,9.84.12.22.35.34.57.34.19,0,.39-.08.52-.26l1.24-1.61c.24-.42.27-.95.04-1.38-2.4-4.62-6.76-8.39-11.71-10.02-2.72-.93-5.52-1.36-8.32-1.36-9.39,0-18.7,4.87-24.35,12.38-4.13,5.4-6.3,12.25-6.11,19.03.04,2.03.18,3.97.42,5.84v.03c-8.65,7.01-17.28,14.02-25.92,21.03-1.27,1.03-2.83,1.57-4.42,1.57-.78,0-1.57-.13-2.33-.4-8.2-2.86-19.58-8.46-28.4-19.6-4.1-5.18-8.98-11.32-9.12-20.24-.16-10.46,6.24-21.65,15.96-25.95.72-.32,2.9-1.26,5.48-1.61.71-.1,1.42-.14,2.13-.14,14.93,0,28.83,20.44,31.61,24.76h.04c12.39-6.59,24.77-13.17,37.15-19.77v-.47s-.42-28.32-.42-28.32c0-.54-.45-.98-1-.98-.04,0-.09,0-.13,0-.5.06-.86.53-.87,1.03l-.94,27.19-.02.03c-10.69,5.6-21.55,10.95-32.3,16.59h-.04c-6.62-6.04-9.91-10.58-9.91-19.16,0-13.56,11.86-20.27,24.97-20.27,3.15,0,6.36.39,9.51,1.16l.04-.02,7.75-22.75-.03-.04h-25.69c-6.28-.27-23.98-1.88-35.36-15.4-.96-1.14-3.67-4.47-6.27-10.55-8.93-20.89-8.14-54.36,12.83-76.42,3.52-3.7,9.96-9.56,20.24-14.25h.01s30.59-46.7,30.59-46.7c.44-.67,1.14-1,1.85-1,.73,0,1.45.35,1.88,1.06,7.56,12.4,15.12,24.79,22.69,37.19h.05c9.93-12.68,19.86-25.35,29.79-38.03.45-.57,1.09-.85,1.73-.85m-58.16,128.12s.02,0,.02-.01c1.83-2.05,4.38-2.98,7.76-2.98,8.32,0,11.59,5.59,11.59,19.84,0,8.8-1.25,14.3-4.17,17.22-.01.02,0,.05.01.05,1.92.59,3.99.9,6.18.9h0c13.28,0,21.86-11.23,21.86-28.6s-8.58-28.61-21.86-28.61c-11.55,0-19.55,8.5-21.43,22.15,0,.02.01.03.03.03m-45.05,0s.01,0,.02-.01c1.83-2.05,4.38-2.98,7.76-2.98,8.32,0,11.59,5.59,11.59,19.84,0,8.8-1.25,14.3-4.17,17.22-.01.02,0,.05.01.05,1.92.59,3.99.9,6.18.9h0c13.28,0,21.86-11.23,21.86-28.6s-8.58-28.61-21.86-28.61c-11.55,0-19.55,8.5-21.43,22.15,0,.02.01.03.03.03M45.02,117.91c-.86,3.08-1.61,6.32-2.32,9.69-3,14.17-2.79,41-2.56,51.87.34,16.19,1.49,36.1,3.21,41.52h0c.31.98.62,2.01.93,3.06.23.77.46,1.56.71,2.37-2.21-1.18-4.48-2.62-6.72-4.38-4.41-3.46-7.51-7.2-9.62-10.28-.61-.9-1.04-1.89-1.27-2.96-2.39-10.88-4.36-24.9-3.93-41.22.31-11.77,1.8-22.15,3.63-30.82.24-1.13.72-2.2,1.4-3.14,2.89-3.93,7.17-8.82,13.22-13.37,1.12-.84,2.23-1.62,3.33-2.34m247.9,135.09c2.18,0,2.67,1.8,2.77,2.39.18,1.02,2.16,10.52,2.16,10.52,3.91-1.09,9.32-2.24,14.71-2.24,4.55,0,9.09.83,12.65,3.22,3.05,2.04,5.05,4.97,5.99,8.71.39.22.78.45,1.15.69,4.26,2.83,6.22,7.13,5.68,12.45-.41,4.08-1.98,7.53-4.24,10.4,4.34,3.11,6.74,7.26,6.84,11.95v.02c.11,4.78-1.82,8.57-4.89,11.37,1.03,3.27.99,6.31-.12,8.8-2.31,5.22-8.84,8.13-17.17,8.13-3,0-6.23-.38-9.58-1.16l-8.25,10.12,1.42,6.98c.04.2-.01.41-.14.57-6.19,7.51-12.37,15.02-18.56,22.54-.13.16-.33.25-.53.25-.15,0-.31-.05-.44-.16l-6.17-5.08-6.17-5.08c-.29-.24-.33-.67-.09-.96,6.19-7.51,12.37-15.02,18.56-22.54.13-.16.32-.25.53-.25l6.77.05,8.67-10.65c1.01-1.24,2.53-1.94,4.1-1.94.42,0,.83.05,1.25.15,3.14.77,6.05,1.11,8.63,1.11,6.14,0,10.45-1.91,11.61-4.53.34-.76.43-1.72.27-2.84-3.51,1.62-7.54,2.5-11.49,2.67-.48.02-.95.03-1.42.03-8.6,0-14.49-3.36-14.82-8.6-.11-1.73.28-7.44,9.91-8.24.72-.06,1.47-.09,2.24-.09,3.81,0,8.05.73,11.73,2.05,2.52.9,4.55,1.99,6.05,3.23,1.29-1.54,2.07-3.45,2.03-5.82-.05-2.58-1.57-5.49-5.2-7.8-5.57,4.2-12.77,6.29-18.5,6.41-.2,0-.39,0-.59,0-6.87,0-11.53-2.78-12.2-7.33-.36-2.44.66-4.67,2.87-6.28,2.68-1.94,7.18-2.9,12.18-2.9,5.02,0,10.54.96,15.19,2.85,1.98-2.2,3.35-4.88,3.68-8.06.22-2.13-.24-3.91-1.37-5.31-3.24,6.09-12.79,8.71-20.03,8.71-.57,0-1.13-.02-1.66-.05-7.02-.42-11.25-3.38-11.33-7.92-.03-1.93.86-4.74,5.26-7.15,3.74-2.05,9.83-3.53,15.92-3.53,1.52,0,3.03.09,4.51.29-.43-.47-.92-.88-1.47-1.25-2.42-1.63-5.75-2.18-9.17-2.18-5.67,0-11.58,1.53-13.95,2.22-.48.14-.98.21-1.48.21-.98,0-1.94-.27-2.79-.79-1.27-.79-2.15-2.08-2.41-3.56l-2.39-11.81s-.36-2.48,2.49-2.95c.28-.05.54-.07.78-.07m17.72,32.47c6.13,0,13.17-2.32,14.73-5.71-.64-.18-1.33-.33-2.06-.45-1.44-.25-3.01-.37-4.61-.37-2.93,0-6,.41-8.79,1.18-4.79,1.34-6.16,3.03-6.25,3.38.01.63,2.03,1.71,5.63,1.93h0c.44.03.89.04,1.35.04m-.37,18.31c.15,0,.3,0,.45,0,3.54-.08,7.92-1.13,11.8-3.19-1.17-.3-2.43-.56-3.79-.77-2.1-.33-3.98-.46-5.65-.46-5.64,0-8.78,1.52-9.02,2.21,0,0,0,.02,0,.05.16,1.07,2.39,2.16,6.2,2.16m7.19,18.83c.37,0,.75,0,1.13-.02h0c2.37-.1,5.63-.64,8.59-1.87-.72-.4-1.62-.81-2.74-1.22-3.02-1.08-6.59-1.7-9.7-1.7-.59,0-1.17.02-1.73.07-2.14.18-4.42.82-4.36,1.82.08,1.26,3.5,2.91,8.81,2.91m-46.31,49.77c.15,0,.31.05.43.16l6.4,5.27c.29.24.33.67.09.96l-3.56,4.33c-.14.16-.33.25-.53.25-.15,0-.31-.05-.43-.16l-6.4-5.27c-.29-.24-.33-.67-.09-.96l3.57-4.33c.14-.16.33-.25.53-.25m-5.86,7.12c.15,0,.31.05.43.16l6.4,5.27c.29.24.33.67.09.96l-8.76,10.63c-.14.16-.33.25-.53.25-.15,0-.31-.05-.43-.16l-6.4-5.27c-.29-.24-.33-.67-.09-.96l8.76-10.63c.14-.16.33-.25.53-.25m-9.79,14.42c.16,0,.31.05.43.16l3.92,3.22c.14.12.23.28.25.46l.49,5.06c.04.38-.24.71-.62.75l-8.63.84s-.04,0-.07,0c-.35,0-.65-.26-.68-.62l-.84-8.63c-.04-.38.24-.71.62-.75l5.06-.49s.05,0,.07,0M184.47,0c-29.83,0-49.44,1.29-65.59,4.32-21.45,4.02-36.88,11.29-48.54,22.88-12.71,12.63-19.92,29.52-22.26,52.47-7.24,5.21-12.17,11.79-15.63,18.54-.09.06-.19.12-.28.18-1.58,1.04-3.06,2.08-4.51,3.17-6.85,5.15-12.91,11.28-18.01,18.22-2.68,3.64-4.52,7.75-5.45,12.18C1.76,143.44.38,155.23.07,166.97c-.41,15.69,1.09,31.45,4.46,46.84.89,4.04,2.51,7.78,4.81,11.15,4.06,5.92,8.93,11.12,14.49,15.48,2.81,2.2,5.82,4.21,8.97,5.97,3.44,6.31,8.48,12.66,16.26,17.48,8.54,5.28,20.55,7.96,35.68,7.96,4.73,0,9.32-.27,13.47-.79,4.38,3.73,9.31,6.88,14.7,9.39-.51.66-.99,1.33-1.45,2.01-2.22-.38-4.5-.59-6.84-.59-1.76,0-3.53.12-5.26.35-3.9.52-7.86,1.66-11.77,3.38-17.94,7.93-30.24,27.54-29.92,47.71.26,16.86,8.97,27.85,14.18,34.41,9.7,12.24,23.2,21.63,39.02,27.15,3.22,1.13,6.6,1.7,10.03,1.7,6.96,0,13.77-2.42,19.17-6.8l5.89-4.78c1.54,1.76,3.2,3.44,4.97,5.03,7.39,6.62,16.72,11.6,27.73,14.81.04.01.07.02.11.03l.15.04c.23.07.46.13.69.19.02,0,.03,0,.05.01l.29.08h.04c.22.08.44.14.66.19.23.06.47.13.7.18.06.02.12.03.19.05l.14.04c.1.03.2.05.3.08.2.05.4.1.59.15l.09.02c.1.03.21.05.31.08.16.04.32.08.48.11.79.19,1.52.36,2.17.51l.65.15c.15.04.3.07.45.11.06.01.12.03.18.04h0c2.62.69,5.3,1.03,7.96,1.03,14.59,0,24.58-10.04,28.71-18.66.54-1.13.99-2.3,1.35-3.51l5.94-20.12c3.82,1.61,7.98,2.81,12.41,3.41l-3.78,4.59c-2.9,1.48-5.49,3.55-7.62,6.13-4.09,4.96-6.01,11.22-5.4,17.62l.84,8.66c1.2,12.4,11.49,21.74,23.95,21.74.75,0,1.52-.04,2.27-.11.02,0,.04,0,.06,0l8.63-.84c6.36-.61,12.15-3.67,16.24-8.64,2.14-2.6,3.69-5.55,4.58-8.69l7.05-8.56c4.37-1.38,8.29-4.01,11.29-7.65h0c6.18-7.51,12.36-15.01,18.54-22.52,0,0,0,0,0,0,0,0,0,0,0,0,2.05-2.49,3.55-5.31,4.46-8.3,15.21-1.62,27.16-9.49,32.58-21.73,1.66-3.74,2.61-7.72,2.83-11.82,2.88-5.57,4.33-11.82,4.19-18.34,0-.33-.02-.66-.04-.99-.23-4.83-1.4-9.5-3.42-13.82.33-1.54.58-3.11.74-4.69,1.19-11.59-2.8-22.46-10.83-30.15-1.39-2.62-3.08-5.04-5.04-7.24,1.81-2.24,3.4-4.53,4.82-6.79.95-.55,1.88-1.11,2.81-1.69,3.34-2.07,6.63-4.37,9.79-6.81,5.74-4.45,9.87-10.8,11.62-17.87,3.76-15.15,5.78-30.76,5.99-46.38.23-16.9-1.65-33.81-5.57-50.26-.05-.22-.11-.44-.17-.66-1.55-5.88-4.8-11.07-9.45-15.04-3.75-3.21-7.8-6.19-12.01-8.84-.33-.21-.66-.41-.99-.61-1.25-3.25-2.84-6.28-4.79-9.12-2.48-3.63-6.24-7.89-11.78-11.61-1.31-10.92-3.9-20.41-7.82-28.77-6.72-14.33-17.48-25.48-31.99-33.16-11.99-6.35-26.48-10.45-45.6-12.93C235.32,1.25,217.41.27,192.21.03c-.03,0-.05,0-.08,0-2.6-.02-5.16-.03-7.66-.03h0Zm-56.33,63.76c4.24-1.28,18.49-4.05,62.25-4.05h1.62c26.88,0,46.2,1.12,57.44,3.33,3.81.75,5.43,1.31,6.4,1.84.29.58.73,1.57,1.22,3.09.85,2.61,1.8,6.61,2.43,12.49-4.15,3.38-7.77,7.49-10.84,12.32l-1.54-2.99c-4.42-8.56-13.13-13.88-22.75-13.88h0c-7.92,0-15.26,3.58-20.14,9.82l-9.01,11.5c-1.71-2.81-3.43-5.62-5.14-8.43-4.67-7.67-12.84-12.26-21.84-12.26-8.67,0-16.67,4.33-21.41,11.58l-8.56,13.07c-.65-1.89-1.35-3.66-2.09-5.32-1.94-4.32-5.16-9.48-10.52-14.16.68-10.49,1.84-15.72,2.49-17.95h0Z"/>
    </g>
  </g>
</svg>