<?xml version="1.0" encoding="UTF-8"?>
<svg id="Layer_2" data-name="Layer 2" xmlns="http://www.w3.org/2000/svg" viewBox="0 0 26.54 26.58">
  <defs>
    <style>
      .cls-1 {
        stroke-width: 0px;
        fill: #ffffff;
      }
    </style>
  </defs>
  <g id="Layer_1-2" data-name="Layer 1">
    <g>
      <path class="cls-1" d="m13.27,26.58c-1.94-.05-3.89-.08-5.83-.16-1.57-.07-3.06-.45-4.36-1.4-1.64-1.19-2.55-2.83-2.84-4.81C-.03,18.4,0,16.56,0,14.74c0-2.12.02-4.25.06-6.37.02-1.16.12-2.31.5-3.42C1.45,2.36,3.29.84,5.94.29,7.34,0,8.75,0,10.16,0c2.72,0,5.43.02,8.15.05,1.23.02,2.45.15,3.6.61,2.41.97,3.83,2.76,4.34,5.3.28,1.38.27,2.79.28,4.19.01,2.72-.02,5.43-.05,8.15-.01,1.17-.14,2.33-.55,3.44-.94,2.51-2.77,3.99-5.39,4.51-1.41.28-2.85.24-4.28.28-1,.02-2,0-2.99,0,0,.02,0,.04,0,.06Zm10.85-13.33s.04,0,.06,0c0-.94.03-1.88,0-2.82-.05-1.27-.09-2.55-.25-3.81-.25-2.08-1.62-3.55-3.61-3.95-.71-.14-1.45-.24-2.17-.25-2.87-.04-5.75-.07-8.62-.05-.95,0-1.91.1-2.86.23-2.09.27-3.56,1.63-3.97,3.67-.16.79-.24,1.61-.26,2.41-.05,2.66-.07,5.31-.04,7.97.01,1.16.11,2.33.29,3.48.29,1.92,1.63,3.3,3.53,3.69.81.16,1.64.27,2.47.28,2.68.05,5.35.07,8.03.05,1.15-.01,2.31-.11,3.45-.28,1.94-.29,3.33-1.66,3.71-3.58.14-.7.23-1.43.25-2.14.04-1.63.01-3.26.01-4.89Z"/>
      <path class="cls-1" d="m20.09,13.26c0,3.77-3.05,6.83-6.82,6.82-3.75,0-6.8-3.06-6.8-6.81,0-3.77,3.05-6.82,6.82-6.82,3.76,0,6.8,3.05,6.8,6.81Zm-6.72,4.43c2.5-.09,4.43-2.13,4.34-4.58-.09-2.44-2.16-4.37-4.58-4.28-2.42.09-4.36,2.14-4.28,4.52.09,2.47,2.12,4.43,4.52,4.34Z"/>
      <path class="cls-1" d="m20.36,7.76c-.87,0-1.57-.71-1.57-1.59,0-.88.71-1.58,1.58-1.58.89,0,1.6.72,1.59,1.6-.01.88-.71,1.57-1.6,1.57Z"/>
    </g>
  </g>
</svg>