<?xml version="1.0" encoding="UTF-8"?>
<svg id="Layer_2" data-name="Layer 2" xmlns="http://www.w3.org/2000/svg" viewBox="0 0 26.54 26.53">
  <defs>
    <style>
      .cls-1 {
        fill: #fff;
        stroke-width: 0px;
      }
    </style>
  </defs>
  <g id="Layer_1-2" data-name="Layer 1">
    <path class="cls-1" d="m26.53,13.27c0,3.76,0,7.51,0,11.27,0,.5-.14.94-.47,1.32-.38.44-.88.68-1.45.68-7.57,0-15.14,0-22.7,0-1.05,0-1.8-.81-1.89-1.68-.01-.11-.02-.22-.02-.32C0,17.01,0,9.49,0,1.98,0,1.03.55.3,1.44.07,1.61.03,1.78,0,1.94,0,9.49,0,17.04,0,24.58,0c.93,0,1.71.62,1.91,1.52.03.16.04.32.04.48,0,3.76,0,7.51,0,11.27Zm-12.38-1.6s-.02,0-.03,0c0-.04,0-.09,0-.13,0-.48,0-.96,0-1.43,0-.17,0-.17-.17-.17-1.16,0-2.31,0-3.47,0-.13,0-.16.04-.16.17,0,4.12,0,8.25,0,12.37,0,.13.04.16.16.16,1.2,0,2.4,0,3.6,0,.21,0,.19.03.19-.2,0-2.22.01-4.44.03-6.66,0-.44.08-.88.23-1.3.22-.62.62-1.06,1.27-1.25.37-.11.75-.14,1.14-.1.67.07,1.16.4,1.43,1.03.23.54.29,1.11.29,1.69,0,2.2,0,4.41,0,6.61,0,.17,0,.17.17.17,1.22,0,2.43,0,3.65,0,.05,0,.1,0,.16,0,0-.08,0-.14,0-.19,0-1.55,0-3.09,0-4.64,0-1.04,0-2.08-.03-3.11-.01-.43-.06-.86-.13-1.29-.11-.67-.29-1.32-.64-1.9-.44-.74-1.06-1.25-1.87-1.53-.72-.25-1.46-.33-2.22-.31-.75.02-1.44.19-2.09.56-.54.3-.99.7-1.33,1.21-.06.09-.12.18-.17.27ZM3.92,22.61c.07,0,.11,0,.15,0,1.21,0,2.43,0,3.64,0,.13,0,.17-.04.17-.17,0-4.12,0-8.23,0-12.35,0-.18,0-.18-.18-.18-1.2,0-2.39,0-3.59,0q-.18,0-.18.18c0,4.11,0,8.22,0,12.34v.17ZM5.9,3.63c-1.26-.02-2.3,1.04-2.3,2.29,0,1.27.99,2.32,2.29,2.31,1.32,0,2.31-1.02,2.31-2.31,0-1.29-1.04-2.29-2.3-2.29Z"/>
  </g>
</svg>