<?xml version="1.0" encoding="UTF-8"?>
<svg id="Layer_2" data-name="Layer 2" xmlns="http://www.w3.org/2000/svg" viewBox="0 0 1178.6 133.91">
  <defs>
    <style>
      .cls-1 {
        fill: #fff;
        stroke-width: 0px;
      }
    </style>
  </defs>
  <g id="Layer_1-2" data-name="Layer 1">
    <g>
      <path class="cls-1" d="m0,131.74V0h21.66v84.64l34.83-43.85h25.08l-36.27,44.94,38.08,46.02h-26.35l-35.37-43.85v43.85H0Z"/>
      <path class="cls-1" d="m109.36,47.82l28.69-9.2,22.02,7.4,6.86,8.3v-13.54h21.66v90.96h-21.66v-13.36l-6.86,8.12-22.02,7.4-28.69-9.2-17.14-23.64v-29.6l17.14-23.64Zm4.51,46.92l10.47,13.71,15.88,5.41,16.06-5.41,10.65-13.71v-16.96l-10.65-13.72-16.06-5.41-15.88,5.41-10.47,13.72v16.96Z"/>
      <path class="cls-1" d="m225.22,0l14.98,14.8-14.98,14.8-14.98-14.8,14.98-14.8Zm-10.83,40.79h21.66v90.96h-21.66V40.79Z"/>
      <path class="cls-1" d="m252.1,124.7l-18.41-23.46v-29.78l18.41-23.64,29.6-9.2,29.6,9.2,18.41,23.64v29.78l-18.41,23.46-29.6,9.2-29.6-9.2Zm55.94-29.78v-17.14l-10.29-13.72-16.06-5.05-16.06,5.05-10.29,13.72v17.14l10.29,13.53,16.06,5.05,16.06-5.05,10.29-13.53Z"/>
      <path class="cls-1" d="m352.08,131.74V0h21.66v84.64l34.83-43.85h25.08l-36.27,44.94,38.08,46.02h-26.35l-35.37-43.85v43.85h-21.66Z"/>
      <path class="cls-1" d="m462.7,124.7l-18.41-23.46v-29.78l18.41-23.64,29.6-9.2,29.6,9.2,18.41,23.64v29.78l-18.41,23.46-29.6,9.2-29.6-9.2Zm55.94-29.78v-17.14l-10.29-13.72-16.06-5.05-16.06,5.05-10.29,13.72v17.14l10.29,13.53,16.06,5.05,16.06-5.05,10.29-13.53Z"/>
      <path class="cls-1" d="m562.68,40.79h20.93v17.87l7.22-11.73,13.35-6.14h14.08v20.39h-12.09l-13.72,8.48-8.12,12.63v49.45h-21.66V40.79Z"/>
      <path class="cls-1" d="m649.12,124.7l-18.41-23.46v-29.78l18.41-23.64,29.6-9.2,29.6,9.2,18.41,23.64v29.78l-18.41,23.46-29.6,9.2-29.6-9.2Zm55.94-29.78v-17.14l-10.29-13.72-16.06-5.05-16.06,5.05-10.29,13.72v17.14l10.29,13.53,16.06,5.05,16.06-5.05,10.29-13.53Z"/>
      <path class="cls-1" d="m763.35,47.82l28.69-9.2,22.02,7.4,6.86,8.3V0h21.66v131.74h-20.93v-13.36l-7.58,8.12-22.02,7.4-28.69-9.2-17.14-23.64v-29.6l17.14-23.64Zm4.51,46.92l10.47,13.71,15.88,5.41,16.06-5.41,10.65-13.71v-16.96l-10.65-13.72-16.06-5.41-15.88,5.41-10.47,13.72v16.96Z"/>
      <path class="cls-1" d="m951.21,131.74h-20.93v-12.81l-6.68,7.76-17.87,7.22-24.9-8.48-13.9-21.84v-62.8h21.66v56.12l7.22,11.55,12.81,5.05,14.26-6.32,6.68-11.37v-55.04h21.66v90.96Z"/>
      <path class="cls-1" d="m990.73,47.82l28.69-9.2,22.02,7.4,6.86,8.3V0h21.66v131.74h-20.93v-13.36l-7.58,8.12-22.02,7.4-28.69-9.2-17.14-23.64v-29.6l17.14-23.64Zm4.51,46.92l10.47,13.71,15.88,5.41,16.06-5.41,10.65-13.71v-16.96l-10.65-13.72-16.06-5.41-15.88,5.41-10.47,13.72v16.96Z"/>
      <path class="cls-1" d="m1178.6,131.74h-20.93v-12.81l-6.68,7.76-17.87,7.22-24.9-8.48-13.9-21.84v-62.8h21.66v56.12l7.22,11.55,12.81,5.05,14.26-6.32,6.68-11.37v-55.04h21.66v90.96Z"/>
    </g>
  </g>
</svg>