<?xml version="1.0" encoding="UTF-8"?>
<svg id="Layer_2" data-name="Layer 2" xmlns="http://www.w3.org/2000/svg" viewBox="0 0 26.54 18.64">
  <defs>
    <style>
      .cls-1 {
        stroke-width: 0px;
        fill: #ffffff;
      }
    </style>
  </defs>
  <g id="Layer_1-2" data-name="Layer 1">
    <path class="cls-1" d="m12.77,18.64c-2.55-.12-5.58-.25-8.62-.42-.82-.05-1.64-.18-2.34-.71-.68-.52-1.12-1.17-1.3-2C.11,13.7.05,11.86.01,10.02c-.04-2.04.03-4.07.33-6.09.13-.86.3-1.71.93-2.38.51-.54,1.1-.91,1.84-1.04,1.77-.33,3.56-.37,5.34-.43,4.15-.13,8.29-.12,12.44.14.83.05,1.67.14,2.49.3,1.41.26,2.33,1.13,2.61,2.52.24,1.19.37,2.41.45,3.62.17,2.66.12,5.33-.25,7.97-.12.88-.31,1.74-.97,2.42-.48.51-1.04.88-1.73.99-.85.13-1.71.27-2.57.31-2.55.12-5.11.19-8.15.3Zm-2.15-5.38c2.32-1.34,4.58-2.64,6.89-3.98-2.33-1.34-4.59-2.65-6.89-3.98v7.95Z"/>
  </g>
</svg>